<?xml version="1.0" standalone="no"?>
<!DOCTYPE svg PUBLIC "-//W3C//DTD SVG 20010904//EN"
 "http://www.w3.org/TR/2001/REC-SVG-20010904/DTD/svg10.dtd">
<svg version="1.0" xmlns="http://www.w3.org/2000/svg"
 width="2480.000000pt" height="3508.000000pt" viewBox="0 0 2480.000000 3508.000000"
 preserveAspectRatio="xMidYMid meet">

<g transform="translate(0.000000,3508.000000) scale(0.100000,-0.100000)"
fill="#000000" stroke="none">
<path d="M11225 29544 c-353 -54 -604 -171 -890 -416 -167 -143 -299 -324
-422 -577 -168 -348 -260 -696 -289 -1099 l-6 -92 -50 66 c-46 60 -54 79 -79
183 -167 700 -524 1198 -1046 1460 -86 43 -232 101 -251 101 -4 0 56 -31 133
-69 550 -268 908 -734 1099 -1433 l25 -91 -112 110 c-182 177 -333 284 -550
388 -155 74 -276 116 -442 151 -99 21 -157 27 -336 31 -235 6 -341 -2 -553
-43 -308 -60 -673 -204 -936 -370 -121 -76 -327 -235 -436 -336 -95 -87 -254
-250 -254 -260 0 -3 123 -8 273 -11 789 -19 1309 -145 1526 -371 19 -20 32
-38 29 -41 -3 -3 -43 -16 -89 -29 -74 -21 -112 -25 -309 -29 -128 -3 -268 -12
-325 -21 -454 -72 -877 -213 -1370 -456 -164 -81 -537 -288 -559 -310 -5 -5
114 52 265 128 764 384 1398 583 1932 607 l132 6 -120 -49 c-588 -241 -1155
-631 -1572 -1080 -391 -422 -665 -813 -893 -1277 -259 -526 -407 -1049 -496
-1745 l-7 -55 125 120 c343 332 708 554 992 604 94 17 91 19 135 -69 23 -44
41 -83 41 -88 0 -5 -39 -40 -87 -78 -49 -39 -136 -114 -194 -166 -58 -53 -152
-124 -210 -160 -195 -121 -332 -226 -539 -414 -195 -176 -478 -490 -604 -669
l-28 -40 27 30 c424 465 750 768 1030 955 42 28 46 29 29 9 -11 -13 -54 -62
-95 -109 -588 -672 -955 -1512 -1066 -2440 -24 -204 -24 -687 0 -890 50 -410
131 -757 268 -1143 34 -95 64 -175 68 -179 4 -4 22 73 40 171 59 325 150 667
236 887 121 311 242 468 384 499 l34 7 -20 -33 c-184 -308 -342 -774 -418
-1224 -54 -329 -81 -714 -70 -1020 12 -336 22 -380 24 -105 5 870 144 1589
419 2170 58 123 107 208 98 170 -3 -14 -24 -113 -45 -220 -186 -919 -188
-1882 -6 -2788 121 -603 311 -1055 614 -1462 78 -105 364 -411 374 -400 2 3
-4 89 -14 191 -57 612 -48 1165 21 1374 19 57 58 131 64 124 2 -2 -2 -87 -7
-188 -17 -294 8 -660 68 -989 146 -796 548 -1448 1125 -1824 47 -31 117 -74
157 -97 281 -161 574 -506 725 -856 52 -120 58 -125 29 -25 -67 235 -189 442
-370 634 -60 63 -69 75 -41 59 19 -11 204 -110 410 -218 400 -211 542 -287
614 -332 l45 -28 -300 -290 c-273 -265 -877 -880 -1145 -1167 -88 -94 -122
-140 -178 -239 -290 -513 -283 -940 20 -1217 116 -107 251 -163 391 -163 93 0
135 9 229 51 36 17 76 30 88 30 13 0 52 -23 87 -52 103 -83 155 -102 274 -102
158 0 280 53 403 174 82 82 148 183 276 428 122 232 192 350 279 472 243 339
532 628 867 866 98 70 200 136 200 129 0 -2 -14 -42 -30 -87 -159 -434 -239
-990 -212 -1466 38 -659 187 -1173 496 -1712 92 -161 131 -249 150 -343 20
-95 20 -171 1 -262 -24 -111 -63 -178 -174 -297 -127 -136 -155 -187 -155
-288 -1 -92 30 -166 96 -233 88 -87 176 -114 473 -143 232 -23 821 -26 965 -5
182 26 260 62 300 140 38 76 45 149 40 471 -9 626 -7 759 13 820 28 82 81 155
131 180 70 34 121 26 178 -28 38 -35 62 -103 92 -264 59 -310 61 -324 61 -760
l0 -406 30 -44 c40 -57 116 -95 216 -108 42 -5 224 -12 405 -16 566 -11 875
21 1053 111 129 65 185 147 185 270 0 57 -5 81 -28 128 -54 107 -185 207 -294
223 -42 6 -44 8 -82 85 -150 297 -107 622 149 1146 l69 142 109 -6 c251 -13
521 43 761 157 216 103 366 213 637 467 393 368 955 867 1019 905 6 4 49 18
96 32 382 114 710 429 823 792 50 158 62 245 61 444 0 218 -10 280 -108 675
-35 143 -74 305 -86 360 -12 55 -26 106 -29 113 -5 8 -25 -35 -51 -105 -23
-65 -60 -151 -81 -191 -117 -221 -296 -397 -507 -498 -303 -145 -348 -169
-441 -240 -182 -136 -296 -291 -362 -489 -21 -62 -23 -90 -24 -252 l-2 -182
-144 -132 c-79 -73 -281 -261 -448 -418 -490 -460 -540 -501 -727 -594 -88
-44 -192 -83 -199 -75 -2 2 4 46 15 98 72 353 79 815 19 1184 -43 265 -122
530 -230 773 -33 75 -56 139 -52 143 4 4 57 19 118 35 309 79 725 228 1125
403 l135 60 19 -55 c10 -30 20 -52 22 -50 3 3 35 45 72 95 l67 90 285 144
c540 274 983 544 1343 822 65 50 166 119 224 153 203 116 406 284 543 448 70
84 233 207 425 322 229 138 354 188 650 263 275 69 323 87 422 152 177 119
307 369 289 556 -13 125 -70 226 -177 310 -49 38 -174 112 -212 125 -4 1 17
54 46 117 198 420 326 867 397 1390 l19 145 -2 -507 c-1 -279 1 -496 5 -481 4
15 15 86 25 157 24 177 25 745 1 910 -14 93 -14 142 -5 335 21 447 -26 1114
-112 1579 -10 57 -15 100 -10 95 19 -19 122 -270 169 -411 137 -412 213 -858
263 -1542 2 -25 4 14 5 85 4 300 -39 715 -109 1051 -71 346 -196 697 -329 924
-36 61 -69 164 -70 214 0 17 6 18 49 13 70 -8 119 -37 184 -107 101 -109 185
-274 275 -546 61 -182 141 -499 186 -735 19 -96 36 -167 40 -159 152 394 270
891 323 1370 24 220 24 728 0 935 -60 502 -191 939 -418 1393 -67 134 -90 188
-75 178 64 -47 163 -100 223 -122 103 -36 117 -29 33 17 -41 23 -104 62 -140
87 -96 68 -261 233 -321 321 -284 413 -652 804 -1026 1088 -52 40 -92 73 -87
73 17 0 309 -163 427 -238 263 -166 529 -376 756 -595 128 -124 117 -99 -21
47 -306 324 -678 603 -1065 797 -155 78 -156 87 -11 96 168 10 318 -30 538
-143 197 -101 428 -273 653 -484 73 -69 87 -78 87 -59 0 50 -53 365 -91 538
-117 532 -322 1091 -559 1521 -395 718 -968 1311 -1680 1739 l-85 51 43 0
c115 0 383 -54 567 -115 383 -126 758 -359 1095 -680 73 -70 92 -84 62 -49
-62 76 -248 251 -365 345 -340 271 -709 446 -1096 519 -130 24 -265 40 -349
40 -57 0 -76 6 -195 64 -234 114 -452 200 -659 261 -49 15 -88 30 -88 35 0 12
97 97 160 140 81 55 178 101 330 158 230 86 377 119 645 147 171 18 406 52
437 64 19 7 12 15 -58 77 -408 359 -921 588 -1448 647 l-111 13 90 28 c107 33
225 93 280 141 l40 36 -55 -27 c-164 -80 -481 -161 -722 -184 -468 -46 -910
-241 -1256 -555 -68 -62 -68 -61 -6 72 163 354 456 692 793 917 158 105 388
210 554 252 38 9 65 20 60 25 -4 4 -64 37 -133 73 -199 104 -421 169 -662 195
-143 16 -463 14 -607 -4 -372 -46 -754 -173 -1078 -359 -35 -20 -63 -34 -63
-31 0 6 153 108 265 177 287 177 659 362 997 499 59 23 106 44 104 46 -7 7
-288 -99 -466 -174 -683 -291 -1239 -674 -1643 -1132 -26 -29 -47 -49 -47 -44
0 22 55 195 95 298 155 402 452 876 649 1035 l56 45 -33 7 c-214 45 -527 56
-722 24 -221 -36 -440 -113 -718 -251 -623 -311 -956 -639 -1306 -1287 -29
-54 -57 -98 -62 -98 -5 0 -9 -9 -9 -19 0 -10 -11 -38 -23 -60 l-24 -42 -27 41
c-81 123 -126 342 -126 617 0 496 147 960 360 1138 46 39 46 38 -45 55 -63 12
-339 22 -390 14z m2327 -1630 c-12 -26 -18 -32 -20 -20 -2 10 4 26 14 37 25
27 26 24 6 -17z m-5087 -2143 c334 -165 651 -242 1002 -242 266 0 489 36 737
121 49 16 91 28 93 26 8 -8 -177 -79 -292 -112 -151 -44 -344 -77 -413 -72
-30 3 -47 1 -40 -3 18 -12 -186 -11 -317 1 -191 18 -436 82 -618 161 -75 33
-246 125 -307 166 -33 22 -33 23 -10 23 14 0 88 -31 165 -69z m5997 36 c124
-79 263 -113 429 -105 123 6 231 33 387 94 92 37 122 44 165 42 l52 -3 -122
-52 c-230 -98 -365 -129 -537 -120 -162 7 -305 59 -406 146 -46 40 -33 39 32
-2z m2448 -3 c-77 -50 -173 -97 -258 -128 -108 -39 -107 -32 4 23 54 27 131
69 169 95 50 32 80 46 105 46 l35 -1 -55 -35z m-9750 -39 c189 -61 364 -172
544 -345 135 -130 377 -423 361 -438 -11 -11 -367 146 -585 259 -163 84 -144
66 38 -38 145 -82 390 -201 517 -252 l80 -32 50 -82 c27 -45 87 -149 132 -232
90 -164 90 -163 12 -164 -26 -1 -56 11 -101 38 -405 246 -896 323 -1264 197
-80 -27 -194 -83 -244 -120 -272 -203 -376 -523 -286 -881 33 -129 132 -329
223 -450 89 -118 237 -263 355 -349 l95 -69 -97 -151 -97 -151 -39 3 c-64 6
-295 68 -395 107 -386 149 -655 383 -805 700 -54 114 -106 270 -136 405 -20
93 -22 133 -22 340 0 267 11 343 85 565 156 469 519 885 950 1089 148 71 225
86 399 82 125 -3 157 -7 230 -31z m10862 19 c211 -48 439 -192 663 -418 289
-290 460 -646 504 -1048 50 -451 -102 -930 -383 -1211 -200 -200 -510 -354
-848 -421 -202 -40 -174 -50 -273 94 -97 142 -99 118 15 200 35 25 100 81 145
126 429 422 505 992 178 1345 -133 143 -322 237 -544 269 -115 17 -346 8 -460
-19 -187 -43 -372 -122 -528 -225 -47 -31 -86 -54 -88 -53 -4 5 197 371 258
469 82 134 90 141 171 173 245 95 479 255 683 466 l80 83 -90 -80 c-190 -169
-344 -278 -510 -359 -98 -47 -195 -86 -195 -78 0 17 130 173 230 276 214 222
408 349 614 402 112 30 271 33 378 9z m-5994 -376 c-6 -93 -39 -159 -110 -223
-73 -66 -157 -104 -412 -186 -253 -82 -337 -118 -442 -190 -97 -67 -155 -134
-205 -234 -61 -124 -73 -262 -34 -380 6 -19 6 -19 -6 -1 -21 33 -39 119 -39
186 0 139 56 273 159 382 113 121 245 195 464 262 64 20 170 52 235 72 64 20
147 52 185 71 117 62 197 173 197 276 0 20 3 37 6 37 4 0 4 -33 2 -72z m1089
40 c-3 -8 -6 -5 -6 6 -1 11 2 17 5 13 3 -3 4 -12 1 -19z m17 -378 c24 -90 84
-214 138 -285 58 -75 131 -134 333 -267 114 -75 179 -126 227 -176 98 -105
113 -143 19 -52 -61 60 -115 98 -271 190 -167 99 -207 127 -280 200 -94 93
-149 185 -190 315 -29 92 -39 288 -19 378 l14 62 6 -150 c4 -93 12 -175 23
-215z m1120 -178 c86 -142 168 -246 290 -367 255 -251 532 -395 872 -451 126
-21 367 -21 489 0 49 8 91 14 92 12 6 -6 -113 -36 -199 -51 -111 -20 -340 -19
-459 1 -465 79 -874 395 -1103 851 -25 51 -46 96 -46 99 0 11 2 7 64 -94z
m-6674 -226 c175 -31 386 -106 536 -192 l69 -39 -135 -5 -135 -5 92 -96 c51
-53 129 -125 173 -160 l80 -64 -38 -35 c-479 -436 -682 -655 -980 -1053 l-125
-167 -26 17 c-329 212 -589 575 -646 900 -32 180 -13 328 62 483 39 82 58 108
137 185 78 79 105 98 196 143 107 52 213 84 336 101 89 13 296 6 404 -13z
m9992 -14 c220 -59 380 -166 481 -320 85 -129 121 -251 121 -412 0 -292 -151
-593 -417 -829 -70 -61 -186 -146 -191 -139 -1 1 -47 61 -101 132 -263 344
-600 703 -912 969 l-82 70 77 53 c121 83 227 176 211 184 -13 7 -182 35 -254
42 -29 3 -28 5 35 46 145 96 365 183 540 216 124 22 387 16 492 -12z m-5593
-572 c98 -294 237 -471 509 -648 225 -147 478 -230 777 -254 l150 -12 -70 -9
c-38 -4 -117 -5 -175 -2 -361 21 -700 172 -950 425 -151 152 -232 299 -291
529 -23 88 -55 292 -63 401 -5 60 2 35 34 -119 22 -106 58 -247 79 -311z
m-1423 -70 c53 -263 177 -557 309 -733 101 -133 274 -270 439 -348 160 -75
345 -107 509 -89 139 16 136 13 79 73 -63 67 -96 125 -137 241 -60 168 -80
293 -79 516 0 150 4 211 17 263 20 80 53 162 73 178 20 16 39 -35 59 -166 49
-320 201 -599 370 -680 78 -38 120 -43 48 -6 -118 61 -225 202 -308 408 -40
97 -119 352 -113 359 2 1 38 -59 81 -134 132 -234 260 -396 416 -529 205 -175
553 -358 811 -426 106 -27 129 -30 290 -31 106 -1 207 4 257 13 l81 13 -72 72
c-109 108 -257 340 -360 566 -40 87 -106 273 -106 298 0 7 46 -34 102 -93 252
-264 570 -483 965 -664 138 -63 402 -165 409 -158 2 2 -29 17 -68 32 -123 48
-381 169 -500 235 -121 68 -348 208 -348 216 0 3 37 -15 83 -39 107 -58 287
-130 407 -161 190 -51 271 -60 495 -60 229 0 334 15 487 70 79 28 248 113 248
125 0 4 -17 10 -37 14 -65 12 -238 84 -320 133 -170 102 -323 241 -443 400
-69 92 -160 249 -190 326 -10 28 -8 27 42 -17 77 -68 241 -178 333 -225 156
-78 344 -131 525 -147 138 -13 376 -74 475 -121 l50 -25 -39 35 c-37 34 -167
96 -200 96 -9 0 -16 5 -16 10 0 6 16 10 34 10 94 0 367 70 495 126 29 13 60
24 67 24 8 0 62 -41 120 -92 869 -746 1509 -1696 1865 -2770 220 -666 320
-1343 306 -2068 -15 -726 -131 -1341 -384 -2035 -57 -156 -58 -157 -152 -230
-61 -46 -134 -135 -181 -217 -20 -37 -36 -55 -43 -50 -7 4 -51 33 -98 64 -225
147 -405 206 -603 195 -229 -12 -406 -124 -491 -308 -55 -121 -57 -232 -6
-459 55 -250 63 -370 36 -573 -54 -413 -265 -839 -585 -1180 -196 -208 -467
-405 -760 -552 l-91 -46 -45 40 c-119 105 -314 102 -611 -10 -171 -64 -371
-91 -818 -109 -673 -27 -1912 8 -3208 90 -469 30 -704 25 -883 -20 l-82 -21
-141 61 c-746 319 -1312 771 -1691 1350 -92 141 -136 201 -295 410 -629 823
-1044 1824 -1189 2870 -45 323 -51 423 -51 870 1 443 8 550 56 885 168 1171
678 2275 1473 3185 174 199 544 561 682 667 l32 24 108 -55 c185 -92 344 -144
554 -182 116 -21 403 -24 499 -5 284 56 503 171 720 376 l74 70 -8 -35 c-32
-151 -149 -418 -247 -564 -119 -179 -299 -335 -503 -436 -66 -33 -117 -60
-113 -60 17 0 168 64 228 97 327 178 564 521 675 976 18 73 32 108 57 140 l33
41 8 -104 c4 -58 19 -161 33 -230z m-256 249 c-67 -59 -193 -141 -295 -192
-419 -209 -911 -220 -1318 -30 -53 26 -96 47 -94 49 1 1 40 -10 85 -27 115
-40 218 -65 352 -85 156 -22 429 -15 584 16 223 44 475 145 646 259 41 27 77
50 80 50 3 0 -15 -18 -40 -40z m2914 -295 c3 -8 2 -12 -4 -9 -6 3 -10 10 -10
16 0 14 7 11 14 -7z m5268 -7206 c61 -18 123 -79 163 -161 48 -98 66 -176 67
-283 1 -95 -16 -153 -62 -211 -45 -58 -3 -153 69 -153 16 0 119 22 229 49 316
78 440 88 530 42 47 -24 90 -72 98 -109 3 -15 7 -33 10 -40 6 -22 -15 -114
-40 -166 -32 -71 -111 -172 -248 -321 -113 -121 -118 -129 -118 -169 0 -29 7
-52 21 -70 19 -24 26 -26 103 -26 162 0 305 -45 421 -132 81 -62 125 -133 125
-203 0 -146 -131 -339 -276 -407 -35 -16 -138 -46 -238 -68 -240 -54 -372 -99
-566 -196 -270 -135 -497 -294 -906 -636 -461 -385 -592 -487 -829 -643 -837
-552 -1935 -1055 -2735 -1254 -223 -56 -250 -70 -250 -132 0 -16 28 -86 64
-157 148 -295 240 -594 293 -947 14 -95 18 -183 18 -420 0 -320 -8 -408 -61
-657 -59 -278 -113 -427 -282 -763 -245 -492 -309 -686 -319 -975 -8 -235 29
-395 127 -545 47 -72 81 -98 155 -116 66 -16 103 -35 143 -73 154 -144 -1
-252 -413 -287 -149 -13 -841 -6 -964 10 -84 10 -93 22 -83 115 4 39 7 202 6
361 0 301 -8 393 -55 635 -47 242 -80 335 -148 411 l-38 43 85 18 c96 19 275
77 366 118 72 32 92 61 75 110 -11 31 -35 50 -65 50 -9 0 -61 -18 -116 -40
-202 -81 -391 -120 -584 -120 -217 0 -415 49 -563 140 -61 38 -102 39 -130 4
-47 -60 -17 -103 120 -170 98 -49 222 -89 319 -105 l70 -12 -43 -46 c-57 -61
-83 -105 -112 -190 -43 -128 -48 -198 -39 -546 14 -494 10 -693 -15 -733 -11
-19 -100 -40 -221 -53 -201 -22 -898 5 -1080 42 -71 15 -100 30 -139 74 -54
62 -41 133 39 210 65 62 158 181 190 246 65 128 91 291 71 444 -22 168 -49
234 -195 493 -271 477 -411 944 -456 1516 -45 580 66 1225 301 1737 55 120 58
148 14 189 -38 36 -82 29 -192 -30 -541 -291 -1035 -748 -1379 -1276 -42 -65
-123 -205 -179 -313 -198 -378 -256 -456 -387 -520 -129 -64 -217 -52 -327 42
-72 62 -107 77 -181 77 -48 0 -79 -8 -148 -37 -79 -34 -95 -37 -177 -37 -79 0
-97 3 -146 28 -31 15 -81 49 -110 74 -234 205 -229 556 15 991 48 86 83 128
244 298 662 700 1300 1326 1786 1751 l150 130 57 -28 c224 -114 890 -262 1542
-345 528 -66 915 -90 1487 -90 674 0 1127 38 1690 141 428 78 1016 253 1296
385 208 99 268 250 145 369 -58 57 -121 81 -307 119 -78 16 -158 37 -178 46
l-36 17 18 30 c18 32 78 85 155 137 32 22 47 39 47 54 0 18 22 33 128 84 556
271 976 680 1227 1197 219 450 276 873 174 1288 -62 250 -51 338 55 444 73 73
143 103 257 111 179 13 368 -66 644 -271 58 -43 99 -66 116 -66 44 0 86 43
104 108 51 176 177 313 333 363 67 21 120 23 174 7z m-5898 -3486 c59 -32 60
-32 78 -12 15 16 32 20 85 20 108 0 103 15 103 -309 0 -152 4 -282 9 -289 4
-8 19 -12 32 -10 l24 3 5 286 c4 222 8 290 19 302 19 23 143 24 165 1 14 -13
16 -54 16 -290 0 -302 -3 -319 -59 -367 -40 -33 -89 -47 -171 -47 -133 0 -210
46 -243 144 -5 16 -64 -31 -76 -62 -24 -57 -57 -67 -253 -70 -226 -5 -218 -10
-218 151 0 70 -6 130 -15 161 -8 27 -15 68 -15 91 0 23 7 64 15 91 8 27 15 76
15 109 0 91 14 105 103 106 40 0 88 7 107 15 23 9 65 13 125 11 80 -2 97 -6
149 -35z m-850 -14 c13 -17 16 -52 17 -153 l0 -130 48 137 c27 76 54 144 61
153 8 10 31 15 71 15 52 0 60 -3 75 -26 17 -24 16 -29 -29 -149 -26 -67 -47
-131 -47 -142 0 -10 23 -86 50 -168 28 -82 50 -159 50 -172 0 -33 -37 -53 -96
-53 -78 0 -86 12 -138 190 l-45 155 0 -152 c-1 -186 -5 -193 -101 -193 -104 0
-100 -15 -100 357 0 373 -6 353 101 353 59 0 70 -3 83 -22z m-2595 -525 c3 -2
-4 -13 -16 -24 l-20 -20 -44 68 c-61 94 -60 95 12 33 35 -30 66 -56 68 -57z
m7097 -2685 c47 -45 128 -82 210 -98 l62 -12 -82 -70 c-140 -121 -405 -358
-556 -498 -80 -74 -210 -195 -289 -267 -165 -153 -265 -231 -396 -308 -159
-94 -326 -156 -505 -190 -93 -17 -318 -32 -343 -22 -14 5 -9 21 27 99 24 51
63 147 87 213 23 66 45 123 48 127 4 4 47 19 96 33 129 37 330 140 455 233 58
43 229 195 380 338 152 142 368 344 480 448 l203 188 42 -88 c26 -54 58 -104
81 -126z"/>
<path d="M10015 21695 c-121 -26 -233 -83 -353 -177 -70 -56 -92 -90 -92 -142
0 -66 76 -121 139 -101 12 3 43 25 69 48 130 112 247 162 382 161 128 -1 218
-40 348 -150 91 -77 135 -82 193 -24 54 53 36 125 -48 195 -207 174 -420 238
-638 190z"/>
<path d="M14091 21634 c-175 -47 -397 -194 -419 -278 -17 -61 15 -119 75 -135
46 -13 71 -2 150 63 240 199 484 194 721 -17 51 -46 69 -53 122 -48 35 3 79
48 86 88 9 49 -11 87 -75 141 -112 96 -221 157 -336 187 -75 19 -251 19 -324
-1z"/>
<path d="M10044 20715 c-181 -92 -296 -374 -281 -689 11 -227 78 -408 191
-522 100 -100 204 -119 315 -58 308 167 366 882 95 1183 -66 74 -121 103 -202
108 -58 4 -74 1 -118 -22z m115 -293 c49 -36 71 -80 71 -142 0 -66 -24 -110
-80 -148 -29 -20 -44 -23 -93 -20 -97 7 -149 61 -155 161 -3 52 0 67 20 96 59
87 161 110 237 53z"/>
<path d="M14143 20727 c-91 -34 -161 -110 -223 -242 -196 -417 -35 -1035 279
-1072 80 -9 144 19 222 96 76 76 124 167 161 301 20 75 23 107 22 270 0 213
-15 285 -85 427 -90 181 -241 270 -376 220z m79 -293 c76 -39 110 -151 69
-231 -27 -55 -72 -85 -132 -91 -60 -6 -100 10 -139 54 -127 146 30 354 202
268z"/>
<path d="M12087 19719 c-330 -18 -587 -88 -587 -160 0 -28 40 -103 93 -175
117 -159 277 -294 434 -366 l92 -42 8 -46 c13 -75 7 -221 -12 -285 -56 -194
-210 -360 -405 -438 -330 -130 -719 13 -874 322 -43 84 -56 133 -66 243 -6 65
-14 96 -31 119 -57 80 -179 76 -230 -8 -20 -32 -21 -44 -16 -137 13 -217 96
-403 256 -570 101 -105 226 -185 372 -240 l46 -18 6 -106 c10 -190 64 -402
149 -579 125 -263 356 -498 585 -593 365 -152 749 -79 1044 199 167 156 290
352 363 580 40 122 76 312 76 396 0 99 6 110 68 135 152 61 310 183 407 313
64 84 130 226 154 327 27 112 30 234 7 277 -46 90 -183 95 -235 9 -11 -19 -21
-61 -25 -110 -21 -245 -159 -439 -388 -546 -183 -86 -415 -79 -608 17 -107 54
-234 180 -283 283 -55 113 -70 185 -64 310 2 58 8 112 11 122 4 9 22 19 40 22
57 11 207 90 293 155 158 119 343 350 343 429 0 76 -242 141 -610 162 -192 11
-199 11 -413 -1z m135 -146 c88 -40 88 -101 1 -144 -41 -21 -63 -24 -153 -24
-114 0 -163 12 -204 50 -49 46 -24 95 64 126 75 27 224 22 292 -8z m80 -1300
c105 -159 318 -307 518 -362 41 -12 123 -26 182 -33 125 -13 116 1 93 -148
-66 -434 -328 -779 -660 -865 -76 -20 -232 -20 -306 -1 -128 34 -244 103 -348
206 -182 182 -288 427 -325 747 l-6 51 67 7 c211 20 387 86 546 206 64 48 173
163 197 209 6 11 12 20 14 20 2 0 15 -17 28 -37z"/>
<path d="M12140 28957 c-36 -12 -86 -34 -111 -49 -216 -127 -402 -464 -490
-892 -43 -212 -36 -240 16 -56 152 542 342 860 586 979 94 46 94 51 -1 18z"/>
</g>
</svg>
